<svg width="24" height="24" viewBox="0 0 24 24" fill="none" xmlns="http://www.w3.org/2000/svg">
<path opacity="0.3" d="M12.06 10.02L5 17.08V18H5.92L12.98 10.94L12.06 10.02Z" fill="#111111"/>
<path d="M15 16L11 20H21V16H15ZM12.06 7.18999L3 16.25V20H6.75L15.81 10.94L12.06 7.18999ZM5.92 18H5V17.08L12.06 10.02L12.98 10.94L5.92 18ZM18.71 8.03999C18.8027 7.94747 18.8763 7.83758 18.9264 7.71661C18.9766 7.59564 19.0024 7.46596 19.0024 7.33499C19.0024 7.20402 18.9766 7.07434 18.9264 6.95336C18.8763 6.83239 18.8027 6.7225 18.71 6.62999L16.37 4.28999C16.1825 4.10398 15.9291 3.9996 15.665 3.9996C15.4009 3.9996 15.1475 4.10398 14.96 4.28999L13.13 6.11999L16.88 9.86999L18.71 8.03999Z" fill="#111111"/>
</svg>
